<?xml version="1.0" encoding="UTF-8" standalone="no"?>
<svg
   xmlns:dc="http://purl.org/dc/elements/1.1/"
   xmlns:cc="http://creativecommons.org/ns#"
   xmlns:rdf="http://www.w3.org/1999/02/22-rdf-syntax-ns#"
   xmlns:svg="http://www.w3.org/2000/svg"
   xmlns="http://www.w3.org/2000/svg"
   xmlns:xlink="http://www.w3.org/1999/xlink"
   xmlns:sodipodi="http://sodipodi.sourceforge.net/DTD/sodipodi-0.dtd"
   xmlns:inkscape="http://www.inkscape.org/namespaces/inkscape"
   version="1.1"
   id="svg10"
   width="1200"
   height="978"
   viewBox="0 0 1200 978"
   sodipodi:docname="Eddited BackgroundSMALL.svg"
   inkscape:version="1.0.2-2 (e86c870879, 2021-01-15)">
  <metadata
     id="metadata16">
    <rdf:RDF>
      <cc:Work
         rdf:about="">
        <dc:format>image/svg+xml</dc:format>
        <dc:type
           rdf:resource="http://purl.org/dc/dcmitype/StillImage" />
        <dc:title></dc:title>
      </cc:Work>
    </rdf:RDF>
  </metadata>
  <defs
     id="defs14" />
  <sodipodi:namedview
     pagecolor="#ffffff"
     bordercolor="#666666"
     borderopacity="1"
     objecttolerance="10"
     gridtolerance="10"
     guidetolerance="10"
     inkscape:pageopacity="0"
     inkscape:pageshadow="2"
     inkscape:window-width="2400"
     inkscape:window-height="1271"
     id="namedview12"
     showgrid="false"
     inkscape:zoom="1.0266667"
     inkscape:cx="600"
     inkscape:cy="489"
     inkscape:window-x="-9"
     inkscape:window-y="-9"
     inkscape:window-maximized="1"
     inkscape:current-layer="g18" />
  <g
     inkscape:groupmode="layer"
     inkscape:label="Image"
     id="g18">
    <image
       sodipodi:absref="C:\Users\Gebruiker\OneDrive - Hogeschool West-Vlaanderen\DAE\Programming 2\MiniGame Speluny 2\Resources\Eddited BackgroundSMALL.png"
       xlink:href="Eddited%20BackgroundSMALL.png"
       id="image20"
       preserveAspectRatio="none"
       height="978"
       width="1200" />
    <path
       style="fill:#000000"
       d="M 600,978 H 0 V 489 0 h 600 600 V 489 978 Z M 179,942 h 82 V 900.5 859 H 250 239 V 873.5 888 H 220.5 202 V 873.5 859 h -25 -25 v 14 14 H 106.5 61 V 873.5 860 H 49.5 38 V 886.5 913 H 67.5 97 v 14.5 14.5 z m 601,-26 h 131 v -30 -30 h 71.5 71.5 v -28 -28 h 14.5 14.5 v -28 -28 h 17 17 v 56 56 h 27 27 v -71 -71 h -27.5 -27.5 v 2 2 H 1099.5 1083 V 701.5 685 h 14 14 V 671.5 658 h 30 30 V 616.5 575 h -13 -13 v 15 15 h -17 -17 V 590 575 H 1097.5 1084 V 561.5 548 h -11.5 -11.5 v 14 14 H 1043.5 1026 V 562 548 H 1011.5 997 v -15 -15 h -11 -11 v 14.5 14.5 h -88 -88 v -15 -15 h -11 -11 v 15 15 h -31 -31 v -15 -15 l -13.75,0.004 -13.75,0.004 -12.75,0.65027 -12.75,0.65026 v 14.34568 14.34568 h -30 -30 v -14.60561 -14.60562 l -42.50008,0.35562 -42.50007,0.35561 7e-5,-13.75 8e-5,-13.75 H 402.5 288 v -16 -16 h 28.5 28.5 v -13.5 -13.5 h 29 29 v -14.5 -14.5 h 16.5 16.5 v 28 28 h 26.5 26.5 v -14 -14 h 14 14 v -14 -14 h 16 16 v 14 14 h 29 29 v 14.5 14.5 h 11 11 v -14 -14 h 17.5 17.5 v 14 14 h 11 11 v -14.5 -14.5 h 16 16 v -12.5 -12.5 h 31 31 v 12.5 12.5 h 40.5 40.5 v 15 15 h 11.5 11.5 v -84.5 -84.5 H 871.5 859 v -14.5 -14.5 H 687 515 v -28 -28 H 487.5 460 v -16 -16 h 45 45 v 15.5 15.5 h 14 14 v 13.5 13.5 h 25.5 25.5 v -29 -29 H 745.5 862 v 29 29 h 154.5 154.5 v -99.5 -99.5 h -26 -26 v 8.838763 8.838763 L 1118.341,72.838653 1117.682,94 H 1075.341 1033 V 108.5 123 H 972.5 912 V 106 89 h 28 28 V 76.5 64 h 28.5 28.5 V 49 34 H 941.5 858 v 57 57 h -28 -28 v -15 -15 h -58 -58 v 15 15 H 659.15952 632.31903 L 631.65952,125.33839 631,102.67679 V 68.338393 34 H 334.5 38 v 99 99 H 64.5 91 V 217.5 203 h 73.5 73.5 v 14 14 h 128 128 v 16 16 H 266 38 V 363 463 H 49.5 61 V 447 431 H 92.5 124 v 30 30 H 81 38 v 98 98 h 69 69 V 672.5 658 h 42 42 V 644.5 631 h 17.5 17.5 v 28 28 h 25 25 V 658.5 630 h 17 17 V 658.5 687 H 390.5 402 V 658.5 630 h 17.5 17.5 v 28.33493 28.33493 L 540.66559,687.33493 644.33117,688 H 679.66559 715 V 673.5 659 h 16.5 16.5 v 14.5 14.5 h 12 12 v -29 -29 h 16.5 16.5 v 29 29 h 71.5 71.5 v 14.5 14.5 h -29 -29 v 31 31 h 11.5 11.5 v -18 -18 h 45.5 45.5 v 14 14 h 14 14 v 11.25 11.25 l 0.6552,18.75 0.6553,18.75 H 973.15241 912.9943 v -10.84128 -10.84127 l -20.25,-0.6561 -20.25,-0.6561 -20.75,-0.003 L 831,808 V 791.5 775 h -67 -67 v 16 16 h -24 -24 v 54.5 54.5 z m 37,-24 h -17 v -30 -30 h 43.84098 43.84097 l 0.65903,21.16124 L 889,874.32247 V 883.16124 892 H 872.5 856 V 877.5 863 h -11 -11 v 14.5 14.5 z m -87.5,-3 H 712 V 875.5 862 h -15 -15 v -16 -16 h 47 47 v 16 16 H 761.5 747 V 875.5 889 Z M 78.5,662 H 62 V 632 602 H 106.5 151 V 631.5 661 H 135.5 120 V 646 631 H 107.5 95 v 15.5 15.5 z m 823,-1 H 884 v -16 -16 h 17.5 17.5 v 16 16 z m -340,-28 H 516 v -16 -16 h 45.5 45.5 v 16 16 z m -383,-56 H 90 V 563 549 H 75.5 61 V 532.5 516 H 177.5 294 V 532.5 549 H 280.5 267 v 14 14 z m 212,-1 H 345 v -30 -30 h 17.5 17.5 v 15 15 h 11 11 V 531.5 517 h 17 17 v 29.5 29.5 z m -141,-84 H 233 v -15 -15 h 16.5 16.5 v 15 15 z M 192,435 h -18 v -16 -16 h 18 18 v 16 16 z m 71,0 H 232 V 419.5 404 h 31 31 V 419.5 435 Z M 106.5,380 H 60 V 348.5 317 H 106.5 153 V 348.5 380 Z M 248,377 H 203 V 347.5 318 h 31.5 31.5 v 14.5 14.5 h 13.5 13.5 v 15 15 z M 463,349 H 375 V 334.5 320 H 361.5 348 V 304 288 H 463.5 579 v 16 16 H 565 551 V 334.5 349 Z M 406,207 H 373 V 190.5 174 h 33 33 v 16.5 16.5 z m 609,0 H 997 V 193 179 H 982.5 968 v -16 -16 h 47.5 47.5 v 16 16 h -15 -15 v 14 14 z M 222,151 h -18 v -16 -16 h 18 18 v 16 16 z m 255,0 h -19 v -17 -17 h 19 19 v 17 17 z m -327,-1 h -32 v -16 -16 h 32 32 v 16 16 z M 108,95 H 90 V 78 61 h 18 18 v 17 17 z m 99.5,-1 H 147 V 78 62 H 207.5 268 V 78 94 Z M 435,94 H 374 V 77 60 h 61 61 v 17 17 z m -16,818 h 124 l 0.003,-78.75 0.003,-78.75 0.65529,-18.75 0.65493,-18.75 H 434.15811 324 v 14 14 H 181 38 v 13 13 h 29 29 v 14.5 14.5 h 14 14 v 14 14 h 68 68 V 800.5 773 h 31.5 31.5 l 0.002,19.75 0.002,19.75 0.65742,23.25 0.65741,23.25 H 309.65912 294.9994 v 26.5 26.5 h 124 z m 43,-24 H 431 V 874 860 H 402 373 V 829.5 799 h 18 18 v 14.5 14.5 h 25.5 25.5 v -14 -14 h 16.5 16.5 v 44 44 z m 14,-113 h -46 v -16 -16 h 46 46 v 16 16 z m 596.5,-287 h 11.5 v -42 -42 h 13.5 13.5 V 390.5 377 h -13.5 -13.5 v -15 -15 h 13.5 13.5 V 334 321 H 1096.5 1082 V 306.5 292 H 1042.5 1003 V 306.5 321 H 975.5 948 v 12 12 h 13 13 v 44.5 44.5 h -12.86408 -12.86407 l -0.63593,4.63957 L 947,443.27914 V 451.63957 460 h 57 57 v 14 14 z M 1043,434 h -17 V 418.5 403 h 17 17 v 15.5 15.5 z m -27.5,-57 H 999 V 361.5 346 h 16.5 16.5 v 15.5 15.5 z"
       id="path22"
       sodipodi:nodetypes="ccccccccccccccccccccccccccccccccccccccccccccccccccccccccccccccccccccccccccccccccccccccccccccccccccccccccccccccccccccccccccccccccccccccccccccccccccccccccccccccccccccccccccccccccccccccccccccccccccccccccccccccccccccccccccccccccccccccccccccccccccccccccccccccccccccccccccccccccccccccccccccccccccccccccccccccccccccccccccccccccccccccccccccccccccccccccccccccccccccccccccccccccccccccccccccccccccccccccccccccccccccccccccccccccccccccccccccccccccccccccccccccccccccccccccccccccccccccccccccccccccccccccccccccccccccccccccccccccccccccccccccccccccccccccccccccccccccccccccccccccccccccccccccccccccccccccccccccccccccccccccccccccccccccccccccccccccccccccccccccccccccccccccccccccccccccccccccccccccccccccccccccccccccccccccccccccccccccccccccccccccccccccccccccccccccccccccccccccccccccc" />
  </g>
</svg>
